<svg width="57" height="38" viewBox="0 0 57 38" fill="none" xmlns="http://www.w3.org/2000/svg">
<path d="M0.484375 6.5C0.484375 3.05273 3.28711 0.25 6.73438 0.25H31.7344C35.1816 0.25 37.9844 3.05273 37.9844 6.5V31.5C37.9844 34.9473 35.1816 37.75 31.7344 37.75H6.73438C3.28711 37.75 0.484375 34.9473 0.484375 31.5V6.5ZM55.084 3.74609C56.0996 4.29297 56.7344 5.34766 56.7344 6.5V31.5C56.7344 32.6523 56.0996 33.707 55.084 34.2539C54.0684 34.8008 52.8379 34.7422 51.8711 34.0977L42.4961 27.8477L41.1094 26.9199V25.25V12.75V11.0801L42.4961 10.1523L51.8711 3.90234C52.8281 3.26758 54.0586 3.19922 55.084 3.74609Z" fill="#54387F"/>
</svg>
