<svg width="51" height="44" viewBox="0 0 51 44" fill="none" xmlns="http://www.w3.org/2000/svg">
<path d="M31.1211 0.21289C33.6602 0.720703 35.3105 3.19141 34.8027 5.73047L34.5781 6.84375C34.0605 9.45117 33.1035 11.9316 31.7656 14.1875H45.8281C48.416 14.1875 50.5156 16.2871 50.5156 18.875C50.5156 20.6816 49.4902 22.2539 47.9863 23.0352C49.0508 23.8945 49.7344 25.2129 49.7344 26.6875C49.7344 28.9727 48.0938 30.877 45.9355 31.2871C46.3652 32 46.6094 32.8301 46.6094 33.7188C46.6094 35.7988 45.252 37.5664 43.377 38.1719C43.4453 38.4941 43.4844 38.8359 43.4844 39.1875C43.4844 41.7754 41.3848 43.875 38.7969 43.875H29.2754C27.4199 43.875 25.6133 43.3281 24.0703 42.3027L20.3105 39.793C17.7031 38.0547 16.1406 35.125 16.1406 31.9902V28.25V23.5625V21.1309C16.1406 18.2793 17.4395 15.5937 19.6562 13.8066L20.3789 13.2305C22.9668 11.1602 24.7344 8.25 25.3789 5.00781L25.6035 3.89453C26.1113 1.35547 28.582 -0.294922 31.1211 0.21289ZM3.64062 15.75H9.89062C11.6191 15.75 13.0156 17.1465 13.0156 18.875V40.75C13.0156 42.4785 11.6191 43.875 9.89062 43.875H3.64062C1.91211 43.875 0.515625 42.4785 0.515625 40.75V18.875C0.515625 17.1465 1.91211 15.75 3.64062 15.75Z" fill="white"/>
</svg>
